# xmcd CD database file
#
# Track frame offsets:
#	150
#	3817
#	23994
#	46570
#	64295
#	85645
#	108295
#	131337
#	149972
#	170997
#	187957
#	204970
#
# Disc length: 2998 seconds
#
# Revision: 0
# Processed by: cddbd v1.5PL3 Copyright (c) Steve Scherf et al.
# Submitted via: CDex 1.50beta10
#
DISCID=9c0bb40c
DTITLE=TROUBADOUR RECORD V.A. - JULIANNA'S TSUNASHIMA Vol.1
DYEAR=1999
DGENRE=Disco
TTITLE0=WELCOME TO JULIANNA'S TSUNASHIMA
TTITLE1=NIGHT IN LOTION
TTITLE2=CONTROL THE UNITBATH
TTITLE3=SOTTELDOMNATION
TTITLE4=JAMES BROWN'S STILL DEAD
TTITLE5=GET LADY FOR US
TTITLE6=EMU8
TTITLE7=DON'T BAMBOO DEATH
TTITLE8=STHASIA
TTITLE9=SESAME'S TREATMENT
TTITLE10=THE HEALING
TTITLE11=ON A RAGGA CHOP
EXTD=YEAR: 1999
EXTT0=
EXTT1=
EXTT2=
EXTT3=
EXTT4=
EXTT5=
EXTT6=
EXTT7=
EXTT8=
EXTT9=
EXTT10=
EXTT11=
PLAYORDER=
